<svg width="112" height="33" viewBox="0 0 112 33" fill="none" xmlns="http://www.w3.org/2000/svg">
<g clip-path="url(#clip0_1535_12)">
<rect width="33" height="33" rx="5" fill="url(#paint0_linear_1535_12)"/>
<circle cx="15.5317" cy="17.3291" r="11.3305" fill="url(#paint1_linear_1535_12)"/>
<circle cx="19.8147" cy="13.8746" r="4.83621" fill="#5340D7"/>
<circle cx="23.9612" cy="9.1766" r="4.83621" fill="url(#paint2_linear_1535_12)"/>
<path d="M41.576 22.5C41.0011 22.5 40.5317 22.324 40.168 21.972C39.816 21.6083 39.64 21.1272 39.64 20.5288V15.6008H37.4576V13.7704H39.64V11.06H41.8576V13.7704H44.2512V15.6008H41.8576V20.1416C41.8576 20.4936 42.0219 20.6696 42.3504 20.6696H44.04V22.5H41.576ZM45.9066 22.5V13.7704H48.089V14.756H48.4058C48.5348 14.404 48.746 14.1459 49.0394 13.9816C49.3444 13.8173 49.6964 13.7352 50.0954 13.7352H51.1514V15.7064H50.0602C49.497 15.7064 49.0335 15.8589 48.6698 16.164C48.306 16.4573 48.1242 16.9149 48.1242 17.5368V22.5H45.9066ZM52.5327 22.5V13.7704H54.7503V22.5H52.5327ZM53.6415 12.7496C53.2426 12.7496 52.9023 12.6205 52.6207 12.3624C52.3508 12.1043 52.2159 11.764 52.2159 11.3416C52.2159 10.9192 52.3508 10.5789 52.6207 10.3208C52.9023 10.0627 53.2426 9.9336 53.6415 9.9336C54.0522 9.9336 54.3924 10.0627 54.6623 10.3208C54.9322 10.5789 55.0671 10.9192 55.0671 11.3416C55.0671 11.764 54.9322 12.1043 54.6623 12.3624C54.3924 12.6205 54.0522 12.7496 53.6415 12.7496ZM56.8557 22.5V13.7704H59.0381V14.7208H59.3549C59.5074 14.4275 59.7597 14.1752 60.1117 13.964C60.4637 13.7411 60.9272 13.6296 61.5021 13.6296C62.124 13.6296 62.6226 13.7528 62.9981 13.9992C63.3736 14.2339 63.661 14.5448 63.8605 14.932H64.1773C64.3768 14.5565 64.6584 14.2456 65.0221 13.9992C65.3858 13.7528 65.9021 13.6296 66.5709 13.6296C67.1106 13.6296 67.5976 13.7469 68.0317 13.9816C68.4776 14.2045 68.8296 14.5507 69.0877 15.02C69.3576 15.4776 69.4925 16.0584 69.4925 16.7624V22.5H67.2749V16.9208C67.2749 16.4397 67.1517 16.0819 66.9053 15.8472C66.6589 15.6008 66.3128 15.4776 65.8669 15.4776C65.3624 15.4776 64.9693 15.6419 64.6877 15.9704C64.4178 16.2872 64.2829 16.7448 64.2829 17.3432V22.5H62.0653V16.9208C62.0653 16.4397 61.9421 16.0819 61.6957 15.8472C61.4493 15.6008 61.1032 15.4776 60.6573 15.4776C60.1528 15.4776 59.7597 15.6419 59.4781 15.9704C59.2082 16.2872 59.0733 16.7448 59.0733 17.3432V22.5H56.8557ZM74.3064 22.5V12.292H70.716V10.18H80.22V12.292H76.6296V22.5H74.3064ZM81.45 22.5V10.18H89.37V12.292H83.7732V15.2312H88.8772V17.3432H83.7732V20.388H89.4756V22.5H81.45ZM90.069 22.5L93.677 16.2872L90.1042 10.18H92.7442L95.1906 14.6328H95.5074L97.9538 10.18H100.594L97.021 16.2872L100.629 22.5H97.989L95.5074 17.9416H95.1906L92.709 22.5H90.069ZM104.669 22.5V12.292H101.079V10.18H110.583V12.292H106.992V22.5H104.669Z" fill="#5437D2"/>
</g>
<defs>
<linearGradient id="paint0_linear_1535_12" x1="16.5" y1="0" x2="16.5" y2="33" gradientUnits="userSpaceOnUse">
<stop stop-color="#23165D"/>
<stop offset="1" stop-color="#130E2C"/>
</linearGradient>
<linearGradient id="paint1_linear_1535_12" x1="23.546" y1="8.20937" x2="10.8337" y2="28.1069" gradientUnits="userSpaceOnUse">
<stop stop-color="#765AFC"/>
<stop offset="0.961451" stop-color="#4F32CC"/>
</linearGradient>
<linearGradient id="paint2_linear_1535_12" x1="26.5866" y1="5.72217" x2="23.9612" y2="14.0128" gradientUnits="userSpaceOnUse">
<stop stop-color="#FE7AFE"/>
<stop offset="1" stop-color="#71CFE9"/>
</linearGradient>
<clipPath id="clip0_1535_12">
<rect width="112" height="33" fill="white"/>
</clipPath>
</defs>
</svg>
